HIERARCHY
ROOT Pelvis
{
	OFFSET 0.000000 0.000000 0.000000
	CHANNELS 6 Xposition Yposition Zposition Xrotation Yrotation Zrotation
	JOINT LeftUpLeg_virtual
	{
		OFFSET 0.000000 0.000000 0.000000
		CHANNELS 3 Xrotation Yrotation Zrotation
		JOINT LeftUpLeg
		{
			OFFSET 18.735201 -5.666702 -4.541200
			CHANNELS 3 Xrotation Yrotation Zrotation
			JOINT LeftLeg
			{
				OFFSET -0.021200 -31.938179 0.493100
				CHANNELS 3 Xrotation Yrotation Zrotation
				JOINT LeftFoot
				{
					OFFSET 0.021200 -31.938179 -4.336299
					CHANNELS 3 Xrotation Yrotation Zrotation
					JOINT LeftToeBase
					{
						OFFSET 0.943001 -26.722000 15.023500
						CHANNELS 3 Xrotation Yrotation Zrotation
						End Site
						{
							OFFSET 0 0 0
						}
					}
				}
			}
		}
	}
	JOINT RightUpLeg_virtual
	{
		OFFSET 0.000000 0.000000 0.000000
		CHANNELS 3 Xrotation Yrotation Zrotation
		JOINT RightUpLeg
		{
			OFFSET -18.735201 -5.666702 -4.541200
			CHANNELS 3 Xrotation Yrotation Zrotation
			JOINT RightLeg
			{
				OFFSET 0.018946 -31.938133 0.493100
				CHANNELS 3 Xrotation Yrotation Zrotation
				JOINT RightFoot
				{
					OFFSET -0.018946 -31.938126 -4.336299
					CHANNELS 3 Xrotation Yrotation Zrotation
					JOINT RightToeBase
					{
						OFFSET -0.943001 -26.722004 15.023500
						CHANNELS 3 Xrotation Yrotation Zrotation
						End Site
						{
							OFFSET 0 0 0
						}
					}
				}
			}
		}
	}
	JOINT Hips_virtual
	{
		OFFSET 0.000000 0.000000 0.000000
		CHANNELS 3 Xrotation Yrotation Zrotation
		JOINT Hips
		{
			OFFSET -0.000000 -0.000000 -0.000000
			CHANNELS 3 Xrotation Yrotation Zrotation
			JOINT Spine
			{
				OFFSET 0.000000 10.199997 -0.299500
				CHANNELS 3 Xrotation Yrotation Zrotation
				JOINT Spine1
				{
					OFFSET 0.000000 11.900002 -1.516600
					CHANNELS 3 Xrotation Yrotation Zrotation
					JOINT Spine2
					{
						OFFSET 0.000000 13.600006 -2.842500
						CHANNELS 3 Xrotation Yrotation Zrotation
						JOINT Neck_virtual
						{
							OFFSET 0.000000 0.000000 0.000000
							CHANNELS 3 Xrotation Yrotation Zrotation
							JOINT Neck
							{
								OFFSET 0.000000 9.624100 -2.890100
								CHANNELS 3 Xrotation Yrotation Zrotation
								JOINT Head
								{
									OFFSET 0.000000 14.068802 -1.351900
									CHANNELS 3 Xrotation Yrotation Zrotation
									End Site
									{
										OFFSET 0 0 0
									}
								}
							}
						}
						JOINT LeftShoulder_virtual
						{
							OFFSET 0.000000 0.000000 0.000000
							CHANNELS 3 Xrotation Yrotation Zrotation
							JOINT LeftShoulder
							{
								OFFSET 15.263000 10.923401 -0.547700
								CHANNELS 3 Xrotation Yrotation Zrotation
								JOINT LeftArm
								{
									OFFSET 25.438599 -2.830597 -13.032500
									CHANNELS 3 Xrotation Yrotation Zrotation
									JOINT LeftForeArm
									{
										OFFSET 29.960503 0.000000 0.000000
										CHANNELS 3 Xrotation Yrotation Zrotation
										JOINT LeftHand
										{
											OFFSET 27.849251 0.000000 0.000000
											CHANNELS 3 Xrotation Yrotation Zrotation
											End Site
											{
												OFFSET 0 0 0
											}
										}
									}
								}
							}
						}
						JOINT RightShoulder_virtual
						{
							OFFSET 0.000000 0.000000 0.000000
							CHANNELS 3 Xrotation Yrotation Zrotation
							JOINT RightShoulder
							{
								OFFSET -15.263000 10.923401 -0.547700
								CHANNELS 3 Xrotation Yrotation Zrotation
								JOINT RightArm
								{
									OFFSET -25.438599 -2.830597 -13.032500
									CHANNELS 3 Xrotation Yrotation Zrotation
									JOINT RightForeArm
									{
										OFFSET -29.960503 0.000000 0.000000
										CHANNELS 3 Xrotation Yrotation Zrotation
										JOINT RightHand
										{
											OFFSET -27.849251 0.000000 0.000000
											CHANNELS 3 Xrotation Yrotation Zrotation
											End Site
											{
												OFFSET 0 0 0
											}
										}
									}
								}
							}
						}
					}
				}
			}
		}
	}
}
MOTION
Frames: 10
Frame Time: 0.03333333
6.815404 86.615005 5.168959 0.000000 0.000000 0.000000 7.620504 -12.345872 -0.949433 -39.931676 4.997169 14.278200 56.794317 9.375263 -0.902097 -22.260684 5.105372 -9.855288 0.000000 0.000000 0.000000 7.620504 -12.345872 -0.949433 -27.428990 -6.421377 -16.222085 53.130317 -8.042724 -3.979721 -14.519871 -2.158220 13.683969 0.000000 0.000000 0.000000 7.620504 -12.345872 -0.949433 0.000000 0.000001 0.000000 12.248040 3.332645 -0.973821 8.663415 6.770423 -1.612663 0.000000 0.000000 0.000000 -3.297306 6.958099 -0.159533 -0.211430 -0.791701 0.479533 0.000000 0.000000 0.000000 -3.297306 6.958099 -0.159533 -1.718770 -6.046464 -0.999763 -9.929218 -3.537259 -61.475671 -13.021844 -28.779227 -4.874852 0.000000 0.000000 0.000000 -3.297306 6.958099 -0.159533 5.719875 -19.303440 3.068950 43.556690 52.747611 9.950994 16.038116 32.046834 10.507638 0.000000 0.000000 0.000000 
6.911315 86.925652 5.052660 0.000000 0.000000 0.000000 7.680641 -12.395409 -1.253718 -39.842211 5.021164 14.462529 56.094240 9.374143 -0.825147 -21.818896 5.038723 -9.709174 0.000000 0.000000 0.000000 7.680641 -12.395409 -1.253718 -26.563401 -6.778462 -15.678166 50.734413 -7.315937 -3.857938 -15.367751 -1.736043 14.217023 0.000000 0.000000 0.000000 7.680641 -12.395409 -1.253718 0.000001 0.000000 0.000000 12.202913 3.283039 -0.929114 8.547019 6.722059 -1.512190 0.000000 0.000000 0.000000 -3.408233 6.901168 -0.063846 -0.222082 -0.748961 0.442194 0.000000 0.000000 0.000000 -3.408233 6.901168 -0.063846 -1.721886 -5.625957 -0.861950 -9.809323 -3.483230 -61.749657 -12.683613 -28.217830 -4.423306 0.000000 0.000000 0.000000 -3.408233 6.901168 -0.063846 5.552881 -18.831827 2.973357 39.568263 52.456584 11.456165 15.406282 28.844336 12.492151 0.000000 0.000000 0.000000 
6.993241 87.268494 4.922644 0.000000 0.000000 0.000000 7.697534 -12.548047 -1.418310 -39.538695 5.203621 14.539804 55.148757 9.415800 -0.747806 -21.289771 5.001098 -9.563488 0.000000 0.000000 0.000000 7.697534 -12.548047 -1.418310 -25.569100 -7.050436 -15.246907 48.074666 -6.688371 -3.720465 -16.128964 -1.343780 14.634061 0.000000 0.000000 0.000000 7.697534 -12.548047 -1.418310 0.000000 0.000001 0.000000 12.137583 3.253322 -0.884161 8.392767 6.705788 -1.434637 0.000000 0.000000 0.000000 -3.557802 6.874138 0.015578 -0.259920 -0.695444 0.358457 0.000000 0.000000 0.000000 -3.557802 6.874138 0.015578 -1.718686 -4.981516 -0.876835 -9.749999 -3.501929 -62.027427 -12.393330 -27.714435 -3.952338 0.000000 0.000000 0.000000 -3.557802 6.874138 0.015578 5.335513 -18.451759 2.888868 35.701317 51.672300 13.059067 16.301534 26.406585 13.088693 0.000000 0.000000 0.000000 
7.032995 87.578766 4.819454 0.000000 0.000000 0.000000 7.718719 -12.652016 -1.569343 -39.304447 5.544217 14.609442 54.232467 9.242831 -0.483540 -20.792595 5.049269 -9.433676 0.000000 0.000000 0.000000 7.718719 -12.652016 -1.569343 -24.595726 -7.312816 -14.894081 45.405212 -6.332986 -3.515987 -16.689876 -0.757955 15.004595 0.000000 0.000000 0.000000 7.718719 -12.652016 -1.569343 0.000000 -0.000001 0.000000 12.070664 3.224848 -0.842079 8.235414 6.693141 -1.358526 0.000000 0.000000 0.000000 -3.710611 6.857831 0.094730 -0.297622 -0.650116 0.272899 0.000000 0.000000 0.000000 -3.710611 6.857831 0.094730 -1.716034 -4.454584 -0.893410 -9.717389 -3.541835 -62.272283 -11.923618 -27.096120 -3.494368 0.000000 0.000000 0.000000 -3.710611 6.857831 0.094730 5.099001 -17.776580 2.830945 31.146827 51.316885 16.165634 17.702665 22.785036 11.882985 0.000000 0.000000 0.000000 
7.093967 87.847763 4.639544 0.000000 0.000000 0.000000 7.736260 -12.773914 -1.710667 -39.133176 5.609743 14.647913 53.476109 9.353634 -0.391949 -20.280899 5.016136 -9.362154 0.000000 0.000000 0.000000 7.736260 -12.773914 -1.710667 -23.853394 -7.573305 -14.568131 42.841200 -6.127445 -3.422765 -16.971678 -0.064897 15.375760 0.000000 0.000000 0.000000 7.736260 -12.773914 -1.710667 0.000000 0.000001 0.000000 12.002878 3.196360 -0.802430 8.076087 6.682152 -1.283643 0.000000 0.000000 0.000000 -3.865400 6.846918 0.173205 -0.341340 -0.607618 0.157522 0.000000 0.000000 0.000000 -3.865400 6.846918 0.173205 -1.703477 -4.073358 -1.096773 -9.664143 -3.522009 -62.401325 -11.500618 -26.618031 -3.042159 0.000000 0.000000 0.000000 -3.865400 6.846918 0.173205 4.854605 -16.949461 2.779317 27.281666 49.320270 18.941540 19.387564 21.796657 11.319702 0.000000 0.000000 0.000000 
7.159497 88.089539 4.483627 0.000000 0.000000 0.000000 7.744115 -12.913876 -1.844648 -38.921259 5.535345 14.698045 52.827408 9.587962 -0.444962 -19.840957 4.951596 -9.306839 0.000000 0.000000 0.000000 7.744115 -12.913876 -1.844648 -22.993014 -7.890910 -14.181608 40.100713 -5.704471 -3.430209 -17.178230 0.273316 15.631059 0.000000 0.000000 0.000000 7.744115 -12.913876 -1.844648 0.000000 0.000001 0.000000 11.934880 3.167216 -0.765846 7.915924 6.670848 -1.209775 0.000000 0.000000 0.000000 -4.021069 6.836050 0.250615 -0.369337 -0.569959 0.071138 0.000000 0.000000 0.000000 -4.021069 6.836050 0.250615 -1.693606 -3.827968 -1.241115 -9.593848 -3.482806 -62.534992 -11.037045 -26.271930 -2.727148 0.000000 0.000000 0.000000 -4.021069 6.836050 0.250615 4.610793 -16.271285 2.746253 24.194383 47.069169 21.401095 20.960201 21.627932 10.737944 0.000000 0.000000 0.000000 
7.222627 88.292313 4.355152 0.000000 0.000000 0.000000 7.739654 -12.991533 -1.976285 -38.769875 5.523831 14.777213 52.292789 9.658979 -0.496905 -19.482671 4.906402 -9.191873 0.000000 0.000000 0.000000 7.739654 -12.991533 -1.976285 -22.357350 -8.309480 -13.879136 37.673353 -4.528608 -3.429747 -17.105060 -0.011600 15.573576 0.000000 0.000000 0.000000 7.739654 -12.991533 -1.976285 0.000001 0.000001 -0.000000 11.867011 3.136882 -0.729526 7.756052 6.657268 -1.136707 0.000000 0.000000 0.000000 -4.176323 6.819914 0.326554 -0.385396 -0.524371 -0.019563 0.000000 0.000000 0.000000 -4.176323 6.819914 0.326554 -1.686503 -3.700851 -1.339811 -9.468430 -3.382483 -62.687907 -10.626057 -25.779881 -2.333761 0.000000 0.000000 0.000000 -4.176323 6.819914 0.326554 4.329969 -15.464375 2.695315 21.398124 45.323824 24.265365 21.420761 20.927659 10.099667 0.000000 0.000000 0.000000 
7.262999 88.461617 4.251177 0.000000 0.000000 0.000000 7.718636 -12.980016 -2.109127 -38.674717 5.560839 14.891465 51.845067 9.568177 -0.536688 -19.173224 4.863397 -9.040829 0.000000 0.000000 0.000000 7.718636 -12.980016 -2.109127 -21.756389 -8.541231 -13.460886 35.477048 -3.310333 -3.521741 -16.884253 -0.703448 15.475911 0.000000 0.000000 0.000000 7.718636 -12.980016 -2.109127 0.000000 0.000000 0.000000 11.800032 3.104649 -0.692434 7.597625 6.639437 -1.064227 0.000000 0.000000 0.000000 -4.329975 6.793162 0.400624 -0.417845 -0.494949 -0.089826 0.000000 0.000000 0.000000 -4.329975 6.793162 0.400624 -1.684020 -3.655045 -1.369009 -9.364245 -3.313603 -62.863265 -10.281036 -25.321793 -1.958483 0.000000 0.000000 0.000000 -4.329975 6.793162 0.400624 4.022896 -14.699896 2.630175 18.984060 43.625484 27.206240 21.850414 20.601123 9.208948 0.000000 0.000000 0.000000 
7.285738 88.628906 4.188631 0.000000 0.000000 0.000000 7.569820 -12.938322 -2.209771 -38.408797 5.732061 15.019321 51.368517 9.331871 -0.609664 -18.912053 4.820750 -8.832130 0.000000 0.000000 0.000000 7.569820 -12.938322 -2.209771 -21.121817 -8.561090 -12.988308 33.538968 -2.189510 -3.770407 -16.531766 -1.610556 15.435422 0.000000 0.000000 0.000000 7.569820 -12.938322 -2.209771 -0.000001 0.000001 0.000000 11.734888 3.053858 -0.658602 7.445178 6.577523 -1.006372 0.000000 0.000000 0.000000 -4.476714 6.731058 0.451143 -0.445405 -0.457113 -0.158855 0.000000 0.000000 0.000000 -4.476714 6.731058 0.451143 -1.684973 -3.558643 -1.338674 -9.219295 -3.205729 -63.074202 -9.988290 -25.041869 -1.647520 0.000000 0.000000 0.000000 -4.476714 6.731058 0.451143 3.728691 -13.710439 2.652063 16.767940 41.643448 30.213209 22.123140 20.475246 8.172152 0.000000 0.000000 0.000000 
7.274371 88.812851 4.137508 0.000000 0.000000 0.000000 7.310599 -12.808939 -2.342747 -38.023516 5.880556 15.140294 50.839635 9.039050 -0.646998 -18.613804 4.785020 -8.645677 0.000000 0.000000 0.000000 7.310599 -12.808939 -2.342747 -20.595611 -8.454338 -12.660223 31.979024 -1.626361 -3.818896 -15.951900 -2.044950 15.447151 0.000000 0.000000 0.000000 7.310599 -12.808939 -2.342747 0.000000 0.000000 0.000000 11.685847 2.994460 -0.613463 7.324738 6.494892 -0.931728 0.000000 0.000000 0.000000 -4.590986 6.645016 0.513621 -0.466893 -0.431634 -0.209421 0.000000 0.000000 0.000000 -4.590986 6.645016 0.513621 -1.686316 -3.491241 -1.306876 -9.128474 -3.161147 -63.281511 -9.621723 -24.665331 -1.360176 0.000000 0.000000 0.000000 -4.590986 6.645016 0.513621 3.436037 -12.677614 2.720370 14.843987 39.461090 33.241219 22.083627 20.411407 7.131021 0.000000 0.000000 0.000000 
